<svg width="18" height="18" viewBox="0 0 18 18" fill="none" xmlns="http://www.w3.org/2000/svg">
<path d="M5.85 15C5.85 14.1646 6.18187 13.3634 6.77261 12.7726C7.36335 12.1819 8.16457 11.85 9 11.85C9.83543 11.85 10.6366 12.1819 11.2274 12.7726C11.8181 13.3634 12.15 14.1646 12.15 15" stroke="#2FCF9D" stroke-width="1.2"/>
<path d="M13.125 10.875L14.625 9.375" stroke="#2FCF9D" stroke-width="1.2" stroke-linecap="round"/>
<path d="M3.75 15H14.25" stroke="#2FCF9D" stroke-width="1.2" stroke-linecap="square"/>
<path d="M3.375 9.375L4.875 10.875" stroke="#2FCF9D" stroke-width="1.2" stroke-linecap="round"/>
<path d="M9 9.375L8.57574 9.79926L9 10.2235L9.42426 9.79926L9 9.375ZM9.6 3C9.6 2.66863 9.33137 2.4 9 2.4C8.66863 2.4 8.4 2.66863 8.4 3L9.6 3ZM6.32574 7.54926L8.57574 9.79926L9.42426 8.95074L7.17426 6.70074L6.32574 7.54926ZM9.42426 9.79926L11.6743 7.54926L10.8257 6.70074L8.57574 8.95074L9.42426 9.79926ZM9.6 9.375L9.6 3L8.4 3L8.4 9.375L9.6 9.375Z" fill="#2FCF9D"/>
</svg>
